<svg xmlns="http://www.w3.org/2000/svg" width="294" height="294" viewBox="0 0 294 294" version="1.1">
	<path d="M 118.500 68.941 C 117.400 69.409, 115.150 71.218, 113.500 72.961 L 110.500 76.130 110 128.119 L 109.500 180.108 98.009 186.082 L 86.519 192.057 91.152 187.279 C 93.700 184.650, 96.466 181.141, 97.299 179.480 C 100.113 173.869, 101.995 158.757, 100.399 154.597 C 99.934 153.384, 98.806 154.101, 95.415 157.765 C 89.342 164.327, 86.230 171.062, 84.935 180.448 C 83.766 188.921, 82.464 192.009, 76.057 201.500 C 73.086 205.901, 72.006 208.515, 72.003 211.309 C 71.999 216.250, 73.266 215.398, 77.040 207.921 C 78.987 204.063, 81.516 200.906, 84.268 198.897 C 88.690 195.668, 107.217 186, 108.982 186 C 109.638 186, 110 192.975, 110 205.625 L 110 225.250 112.996 224.651 C 117.225 223.805, 120.823 221.215, 122.791 217.602 C 124.127 215.146, 124.585 210.809, 124.989 196.791 L 125.500 179.081 135.154 174.124 L 144.808 169.167 145.156 182.334 C 145.482 194.695, 145.698 195.911, 148.687 202.225 C 160.248 226.642, 191.679 232.206, 210.333 213.138 C 219.189 204.086, 222.918 191.781, 218.010 187.807 C 213.344 184.029, 207.815 186.513, 205.813 193.286 C 204.160 198.879, 195.931 207.145, 190.384 208.784 C 179.138 212.107, 167.701 207.265, 162.485 196.971 C 160.130 192.322, 160 191.184, 160 175.167 L 160 158.268 167.250 155.015 C 172.029 152.870, 176.226 151.717, 179.564 151.631 C 184.606 151.501, 184.662 151.534, 192.064 159.084 C 198.555 165.704, 200.625 167.135, 208.350 170.334 C 213.217 172.350, 217.601 174, 218.092 174 C 219.507 174, 216.038 166.013, 212.015 160.009 C 206.525 151.816, 200.594 149.013, 188.636 148.958 L 179.500 148.916 187.555 145.667 C 207.631 137.571, 218.116 127.260, 219.677 114.078 C 220.294 108.870, 218.276 90.288, 217.008 89.505 C 216.607 89.257, 215.429 90.944, 214.390 93.253 C 213.350 95.562, 209.435 101.737, 205.690 106.976 C 201.944 112.214, 196.601 121.140, 193.816 126.811 C 188.154 138.342, 186.386 140.040, 169.330 150.329 L 160.160 155.860 159.829 138.180 C 159.554 123.480, 159.195 119.945, 157.700 117.206 C 155.673 113.489, 150.623 110.009, 147.250 110.004 L 145 110 145 137.489 L 145 164.978 137.250 168.857 C 132.988 170.991, 128.471 173.056, 127.214 173.447 L 124.927 174.158 125.214 138.163 L 125.500 102.169 128.528 97.862 C 133.228 91.178, 138.877 87.709, 145.889 87.202 C 158.778 86.269, 165.501 91.230, 172.317 106.702 C 174.505 111.669, 182.889 111.531, 185.186 106.491 C 187.573 101.252, 180.876 87.764, 172.338 80.617 C 160.652 70.835, 141.214 69.467, 128.799 77.553 L 125.099 79.963 124.799 74.232 C 124.544 69.350, 124.203 68.470, 122.500 68.295 C 121.400 68.182, 119.600 68.472, 118.500 68.941" stroke="none" fill="black" fill-rule="evenodd"/>
</svg>